<svg xmlns="http://www.w3.org/2000/svg" width="480" height="360" viewBox="0 0 480 360" fill="none">
  <rect width="480" height="360" fill="#e0f2fe"/>
  <!-- Medical Cross -->
  <rect x="220" y="120" width="40" height="120" fill="#0369a1" rx="4"/>
  <rect x="180" y="160" width="120" height="40" fill="#0369a1" rx="4"/>
  <!-- Stethoscope -->
  <path d="M160 200C160 200 140 220 120 240C100 260 100 280 120 300C140 320 160 300 160 300" stroke="#059669" stroke-width="4" fill="none"/>
  <circle cx="110" cy="290" r="15" fill="#059669"/>
  <circle cx="160" cy="200" r="8" fill="#059669"/>
  <!-- Building outline -->
  <rect x="320" y="100" width="120" height="160" fill="none" stroke="#374151" stroke-width="2"/>
  <rect x="330" y="120" width="20" height="30" fill="#374151"/>
  <rect x="360" y="120" width="20" height="30" fill="#374151"/>
  <rect x="390" y="120" width="20" height="30" fill="#374151"/>
  <rect x="330" y="170" width="20" height="30" fill="#374151"/>
  <rect x="360" y="170" width="20" height="30" fill="#374151"/>
  <rect x="390" y="170" width="20" height="30" fill="#374151"/>
  <text x="240" y="300" text-anchor="middle" fill="#374151" font-family="Arial, sans-serif" font-size="16" font-weight="bold">Fasilitas Medis Modern</text>
</svg>